<svg width="24" height="24" viewBox="0 0 24 24" fill="none" xmlns="http://www.w3.org/2000/svg">
<path d="M23.038 0H0.958047C0.427047 0 -0.00195312 0.429 -0.00195312 0.96V23.04C-0.00195312 23.571 0.427047 24 0.958047 24H23.038C23.569 24 23.998 23.571 23.998 23.04V0.96C23.998 0.429 23.569 0 23.038 0ZM13.093 15.324C11.776 17.178 9.13005 17.718 7.06605 16.923C4.99605 16.134 3.52605 13.947 3.70305 11.718C3.74805 8.991 6.25905 6.6 8.98605 6.693C10.294 6.633 11.524 7.2 12.526 8.001C12.097 8.487 11.656 8.955 11.182 9.39C9.97905 8.559 8.26605 8.322 7.06305 9.282C5.34105 10.473 5.26305 13.284 6.91905 14.565C8.53005 16.026 11.575 15.3 12.022 13.062C11.014 13.047 10 13.062 8.99205 13.029C8.98905 12.426 8.98605 11.826 8.98905 11.223C10.675 11.217 12.364 11.214 14.053 11.229C14.152 12.648 13.963 14.154 13.093 15.324ZM20.368 12.735C19.864 12.741 19.36 12.744 18.856 12.747C18.85 13.251 18.847 13.755 18.847 14.259H17.338C17.332 13.755 17.332 13.254 17.329 12.75C16.825 12.744 16.321 12.741 15.817 12.735V11.232C16.321 11.226 16.825 11.223 17.329 11.223C17.332 10.719 17.338 10.215 17.341 9.711H18.847L18.856 11.223C19.36 11.229 19.864 11.229 20.368 11.232V12.735Z" fill="#979797"/>
</svg>
