<svg width="24" height="24" viewBox="0 0 24 24" fill="none" xmlns="http://www.w3.org/2000/svg">
<g clip-path="url(#clip0_3525_1126)">
<path d="M11.8492 9.00039C12.1492 9.00039 12.2992 8.70039 12.2992 8.25039V6.15039C12.2992 5.70039 12.1492 5.40039 11.8492 5.40039C11.5492 5.40039 11.3992 5.70039 11.3992 6.15039V8.25039C11.3992 8.70039 11.5492 9.00039 11.8492 9.00039ZM10.6492 17.8504C10.4992 18.1504 10.1992 18.3004 10.0492 18.3004C9.89922 18.3004 9.89922 18.3004 9.89922 18.1504V14.1004H8.99922V18.0004C8.99922 18.3004 8.99922 18.6004 9.14922 18.7504C9.29922 19.0504 9.44922 19.0504 9.74922 19.0504C10.0492 19.0504 10.3492 18.9004 10.7992 18.4504V19.0504H11.6992V14.1004H10.6492V17.8504ZM5.69922 13.3504H6.74922V19.0504H7.79922V13.3504H8.84922V12.3004H5.69922V13.3504ZM14.0992 13.9504C13.7992 13.9504 13.4992 14.2504 13.1992 14.5504V12.3004H12.2992V18.9004H13.1992V18.4504C13.4992 18.7504 13.7992 19.0504 14.0992 19.0504C14.3992 19.0504 14.6992 18.9004 14.8492 18.4504C14.8492 18.3004 14.9992 17.8504 14.9992 17.4004V15.4504C14.9992 15.0004 14.9992 14.7004 14.8492 14.4004C14.6992 14.2504 14.5492 13.9504 14.0992 13.9504ZM14.0992 17.5504C14.0992 18.0004 13.9492 18.1504 13.6492 18.1504C13.4992 18.1504 13.3492 18.1504 13.1992 18.0004V15.0004C13.3492 14.8504 13.4992 14.8504 13.6492 14.8504C13.9492 14.8504 14.0992 15.1504 14.0992 15.6004V17.5504ZM16.9492 13.9504C16.4992 13.9504 16.1992 14.1004 15.8992 14.4004C15.7492 14.7004 15.5992 15.0004 15.5992 15.6004V17.4004C15.5992 18.0004 15.7492 18.3004 15.8992 18.6004C16.1992 18.9004 16.4992 19.0504 16.9492 19.0504C17.3992 19.0504 17.8492 18.9004 17.9992 18.4504C18.1492 18.3004 18.1492 18.1504 18.1492 17.8504V17.1004H17.2492V17.7004C17.2492 18.0004 17.0992 18.0004 16.7992 18.0004C16.4992 18.0004 16.3492 17.7004 16.3492 17.2504V16.3504H18.1492V15.3004C18.1492 14.7004 17.9992 14.4004 17.8492 14.1004C17.8492 14.2504 17.3992 13.9504 16.9492 13.9504ZM17.3992 15.9004H16.4992V15.4504C16.4992 15.0004 16.6492 14.7004 16.9492 14.7004C17.2492 14.7004 17.3992 15.0004 17.3992 15.4504V15.9004Z" fill="#FDFDFD"/>
<path d="M0 0V24H24V0H0ZM13.95 4.65H14.85V8.7C14.85 8.85 14.85 9 15 9C15.15 9 15.3 8.85 15.6 8.55V4.65H16.5V9.6H15.6V9.15C15.3 9.6 14.85 9.75 14.55 9.75C14.25 9.75 14.1 9.6 13.95 9.45C13.95 9.3 13.8 9 13.8 8.7V4.65H13.95ZM10.5 6.3C10.5 5.85 10.5 5.4 10.8 5.1C11.1 4.8 11.4 4.65 11.85 4.65C12.3 4.65 12.6 4.8 12.9 5.1C13.05 5.4 13.2 5.7 13.2 6.3V8.1C13.2 8.7 13.05 9 12.9 9.3C12.6 9.6 12.3 9.75 11.85 9.75C11.4 9.75 11.1 9.6 10.8 9.3C10.5 9 10.5 8.7 10.5 8.1V6.3ZM7.95 3L8.7 5.7L9.45 3H10.5L9.3 7.05V9.75H8.25V7.05C8.1 6.45 7.95 5.85 7.65 4.8C7.35 4.2 7.2 3.6 6.9 3H7.95ZM19.2 19.35C19.05 20.1 18.3 20.7 17.55 20.85C15.75 21 13.8 21 12 21C10.2 21 8.25 21 6.45 20.85C5.7 20.7 4.95 20.25 4.8 19.35C4.5 18.15 4.5 16.95 4.5 15.75C4.5 14.7 4.5 13.5 4.8 12.3C4.95 11.55 5.7 10.95 6.45 10.8C8.25 10.65 10.2 10.65 12 10.65C13.8 10.65 15.75 10.65 17.55 10.8C18.3 10.95 19.05 11.4 19.2 12.3C19.5 13.5 19.5 14.7 19.5 15.75C19.5 16.95 19.5 18.15 19.2 19.35Z" fill="#FDFDFD"/>
</g>
<defs>
<clipPath id="clip0_3525_1126">
<rect width="24" height="24" fill="white"/>
</clipPath>
</defs>
</svg>
